<?xml version="1.0" encoding="UTF-8"?>
<svg width="1400" height="1400" viewBox="0 0 1400 1400" fill="none" xmlns="http://www.w3.org/2000/svg">
  <rect width="1400" height="1400" fill="#F4F0E8"/>
  <defs>
    <radialGradient id="glow" cx="0" cy="0" r="1" gradientUnits="userSpaceOnUse"
      gradientTransform="translate(700 640) rotate(90) scale(520 520)">
      <stop offset="0%" stop-color="#E6E2D5"/>
      <stop offset="55%" stop-color="#F4F0E8"/>
      <stop offset="100%" stop-color="#C39A4A"/>
    </radialGradient>
    <linearGradient id="mountainDark" x1="370" y1="420" x2="1020" y2="840" gradientUnits="userSpaceOnUse">
      <stop offset="0%" stop-color="#143F3D"/>
      <stop offset="100%" stop-color="#062D2B"/>
    </linearGradient>
    <linearGradient id="mountainLight" x1="430" y1="520" x2="760" y2="860" gradientUnits="userSpaceOnUse">
      <stop offset="0%" stop-color="#9FB6AF"/>
      <stop offset="100%" stop-color="#5E7F77"/>
    </linearGradient>
    <linearGradient id="roadGrad" x1="700" y1="780" x2="865" y2="915" gradientUnits="userSpaceOnUse">
      <stop offset="0%" stop-color="#E7EEE9"/>
      <stop offset="100%" stop-color="#B7CBC3"/>
    </linearGradient>
    <filter id="softShadow" x="0" y="0" width="1400" height="1400" filterUnits="userSpaceOnUse">
      <feDropShadow dx="0" dy="14" stdDeviation="18" flood-color="#10312F" flood-opacity="0.16"/>
    </filter>
  </defs>

  <rect width="1400" height="1400" fill="url(#glow)"/>

  <g filter="url(#softShadow)">
    <path d="M348 742L570 430L706 616L834 540L1052 742H348Z" fill="url(#mountainDark)"/>
    <path d="M414 742L570 518L693 621L538 742H414Z" fill="url(#mountainLight)"/>

    <path d="M556 486L570 430L632 523L603 509L585 549L572 523L556 486Z" fill="#F7F6F1"/>
    <path d="M810 578L834 540L899 615L871 602L853 642L839 610L810 578Z" fill="#F7F6F1"/>
    <path d="M466 572L497 530L548 609L519 596L503 626L489 601L466 572Z" fill="#E6EFEA"/>

    <g fill="#0D3331">
      <path d="M640 663L660 621L680 663H668L687 700H671L692 742H588L609 700H593L612 663H640Z"/>
      <path d="M773 704L787 674L801 704H792L806 732H796L812 757H742L758 732H748L762 704H773Z"/>
      <path d="M825 694L838 667L851 694H843L856 719H848L863 742H798L813 719H805L818 694H825Z"/>
      <path d="M535 696L548 670L561 696H553L566 720H558L573 742H507L522 720H514L527 696H535Z"/>
      <path d="M471 705L482 683L493 705H486L497 725H490L502 742H446L458 725H451L462 705H471Z"/>
    </g>

    <circle cx="692" cy="745" r="86" fill="#0D3533"/>
    <circle cx="692" cy="745" r="60" fill="#6D8D85"/>
    <circle cx="692" cy="745" r="24" fill="#F5F2EA"/>

    <path d="M739 860C788 826 823 782 839 735C854 691 847 659 816 637C787 616 742 619 693 650C748 645 780 662 788 699C797 741 769 800 709 855C719 859 728 861 739 860Z" fill="url(#roadGrad)"/>

    <rect x="368" y="755" width="260" height="10" rx="5" fill="#0D3533"/>
    <rect x="758" y="755" width="276" height="10" rx="5" fill="#0D3533"/>
  </g>

  <g fill="#0B3432">
    <text x="700" y="980" text-anchor="middle"
          font-family="Georgia, 'Times New Roman', serif"
          font-size="148" font-weight="700" letter-spacing="-3">
      Livable
    </text>
    <text x="700" y="1120" text-anchor="middle"
          font-family="Georgia, 'Times New Roman', serif"
          font-size="164" font-weight="700" letter-spacing="-4">
      Telluride
    </text>
  </g>

  <g fill="#0B3432">
    <rect x="392" y="1165" width="230" height="8" rx="4"/>
    <rect x="778" y="1165" width="230" height="8" rx="4"/>
    <rect x="693" y="1157" width="14" height="14" transform="rotate(45 693 1157)" rx="1"/>
  </g>
</svg>
