<?xml version="1.0" encoding="utf-8"?>
<!-- Generator: Adobe Illustrator 28.1.0, SVG Export Plug-In . SVG Version: 6.00 Build 0)  -->
<svg version="1.1" id="Layer_1" xmlns="http://www.w3.org/2000/svg" xmlns:xlink="http://www.w3.org/1999/xlink" x="0px" y="0px"
	 viewBox="0 0 200 200" style="enable-background:new 0 0 200 200;" xml:space="preserve">
<path id="Instagram_White" d="M58.6,0.7C47.9,1.2,40.7,2.9,34.3,5.4C27.7,7.9,21.6,11.9,16.6,17c-5.1,5-9,11-11.5,17.7
	C2.7,41.1,1,48.3,0.5,59S0,73,0,100.2s0.2,30.6,0.7,41.2c0.5,10.6,2.2,17.9,4.7,24.3c2.5,6.7,6.5,12.7,11.6,17.7
	c5,5.1,11.1,9,17.7,11.5c6.4,2.5,13.6,4.1,24.3,4.6S73,200,100.2,200s30.6-0.2,41.2-0.7s17.9-2.2,24.2-4.7
	c13.4-5.2,24-15.9,29.2-29.3c2.5-6.4,4.1-13.6,4.6-24.3c0.5-10.7,0.6-14.1,0.5-41.2s-0.2-30.6-0.7-41.2s-2.2-17.9-4.7-24.3
	c-2.5-6.7-6.5-12.7-11.6-17.7c-5-5.1-11.1-9-17.7-11.5C159,2.7,151.7,1,141,0.5S127,0,99.8,0S69.3,0.2,58.6,0.7 M59.8,181.5
	c-9.8-0.4-15-2-18.6-3.4c-4.3-1.6-8.3-4.1-11.5-7.5c-3.3-3.2-5.9-7.1-7.5-11.5c-1.4-3.5-3-8.8-3.5-18.6c-0.5-10.5-0.6-13.7-0.7-40.4
	s0-29.9,0.5-40.4c0.4-9.7,2-15,3.4-18.6c1.6-4.3,4.1-8.3,7.5-11.5c3.2-3.3,7.1-5.9,11.5-7.5c3.5-1.4,8.8-3,18.6-3.5
	c10.5-0.5,13.7-0.6,40.4-0.7s29.9,0,40.4,0.5c9.7,0.4,15,2,18.6,3.4c4.3,1.6,8.3,4.1,11.5,7.5c3.3,3.2,5.9,7.1,7.5,11.5
	c1.4,3.5,3,8.8,3.5,18.6c0.5,10.5,0.6,13.7,0.7,40.4s0,29.9-0.5,40.4c-0.4,9.8-2,15-3.4,18.6c-3.3,8.7-10.2,15.6-18.9,19
	c-3.5,1.4-8.8,3-18.6,3.5c-10.5,0.5-13.7,0.6-40.4,0.7S70.3,181.9,59.8,181.5 M141.3,46.6c0,6.6,5.4,12,12,12s12-5.4,12-12
	s-5.4-12-12-12c0,0,0,0,0,0C146.6,34.5,141.3,39.9,141.3,46.6 M48.7,100.1c0.1,28.4,23.1,51.3,51.4,51.3
	c28.4-0.1,51.3-23.1,51.3-51.4c-0.1-28.4-23.1-51.3-51.4-51.3c0,0,0,0,0,0C71.5,48.7,48.6,71.7,48.7,100.1
	C48.7,100.1,48.7,100.1,48.7,100.1 M66.7,100.1c0-18.4,14.9-33.4,33.3-33.4c18.4,0,33.4,14.9,33.4,33.3c0,18.4-14.9,33.4-33.3,33.4
	C81.7,133.4,66.7,118.5,66.7,100.1C66.7,100.1,66.7,100.1,66.7,100.1"/>
</svg>
