<svg xmlns="http://www.w3.org/2000/svg" viewBox="0 0 1100 600" width="1100" height="600">
<defs>
  <pattern id="cl_hatch_ds" patternUnits="userSpaceOnUse" width="6" height="6" patternTransform="rotate(45)">
    <rect width="6" height="6" fill="#E65100"/>
    <line x1="0" y1="0" x2="0" y2="6" stroke="#FFB74D" stroke-width="2.5"/>
  </pattern>
  <pattern id="cl_hatch_noi" patternUnits="userSpaceOnUse" width="6" height="6" patternTransform="rotate(45)">
    <rect width="6" height="6" fill="#558B2F"/>
    <line x1="0" y1="0" x2="0" y2="6" stroke="#DCEDC8" stroke-width="2.5"/>
  </pattern>
</defs>
<rect width="1100" height="600" fill="#F4F6F9" rx="6"/>
<rect x="0" y="0" width="1100" height="68" fill="#1F4E79" rx="6"/>
<rect x="0" y="10" width="1100" height="58" fill="#1F4E79"/>
<text x="550" y="28" text-anchor="middle" font-family="Arial,Helvetica,sans-serif" font-size="14.5" font-weight="bold" fill="white">THA Portfolio (All 5 Projects) — Annual Debt Service vs. NOI (2024–2034) | Excl. Balloons | 15% Vacancy</text>
<text x="550" y="50" text-anchor="middle" font-family="Arial,Helvetica,sans-serif" font-size="10" fill="#BDD7EE" font-style="italic">Regular annual DS $3,889K/yr  ·  NOI haircut 15% vacancy  ·  ~$33.0M total balloon exposure NOT SHOWN  ·  2025 DSCR 0.70x → 2034 DSCR 0.91x</text>
<rect x="94" y="72" width="970" height="400" fill="white" stroke="#CCCCCC" stroke-width="1" rx="2"/>
<line x1="94.0" y1="472.0" x2="1064.0" y2="472.0" stroke="#AAAAAA" stroke-width="1" stroke-dasharray="4,4"/>
<text x="86" y="476.0" text-anchor="end" font-family="Arial,Helvetica,sans-serif" font-size="10" fill="#555555">$0K</text>
<line x1="94.0" y1="435.6" x2="1064.0" y2="435.6" stroke="#E0E0E0" stroke-width="1" stroke-dasharray="4,4"/>
<text x="86" y="439.6" text-anchor="end" font-family="Arial,Helvetica,sans-serif" font-size="10" fill="#555555">$500K</text>
<line x1="94.0" y1="399.3" x2="1064.0" y2="399.3" stroke="#E0E0E0" stroke-width="1" stroke-dasharray="4,4"/>
<text x="86" y="403.3" text-anchor="end" font-family="Arial,Helvetica,sans-serif" font-size="10" fill="#555555">$1,000K</text>
<line x1="94.0" y1="362.9" x2="1064.0" y2="362.9" stroke="#E0E0E0" stroke-width="1" stroke-dasharray="4,4"/>
<text x="86" y="366.9" text-anchor="end" font-family="Arial,Helvetica,sans-serif" font-size="10" fill="#555555">$1,500K</text>
<line x1="94.0" y1="326.5" x2="1064.0" y2="326.5" stroke="#E0E0E0" stroke-width="1" stroke-dasharray="4,4"/>
<text x="86" y="330.5" text-anchor="end" font-family="Arial,Helvetica,sans-serif" font-size="10" fill="#555555">$2,000K</text>
<line x1="94.0" y1="290.2" x2="1064.0" y2="290.2" stroke="#E0E0E0" stroke-width="1" stroke-dasharray="4,4"/>
<text x="86" y="294.2" text-anchor="end" font-family="Arial,Helvetica,sans-serif" font-size="10" fill="#555555">$2,500K</text>
<line x1="94.0" y1="253.8" x2="1064.0" y2="253.8" stroke="#E0E0E0" stroke-width="1" stroke-dasharray="4,4"/>
<text x="86" y="257.8" text-anchor="end" font-family="Arial,Helvetica,sans-serif" font-size="10" fill="#555555">$3,000K</text>
<line x1="94.0" y1="217.5" x2="1064.0" y2="217.5" stroke="#E0E0E0" stroke-width="1" stroke-dasharray="4,4"/>
<text x="86" y="221.5" text-anchor="end" font-family="Arial,Helvetica,sans-serif" font-size="10" fill="#555555">$3,500K</text>
<line x1="94.0" y1="181.1" x2="1064.0" y2="181.1" stroke="#E0E0E0" stroke-width="1" stroke-dasharray="4,4"/>
<text x="86" y="185.1" text-anchor="end" font-family="Arial,Helvetica,sans-serif" font-size="10" fill="#555555">$4,000K</text>
<line x1="94.0" y1="144.7" x2="1064.0" y2="144.7" stroke="#E0E0E0" stroke-width="1" stroke-dasharray="4,4"/>
<text x="86" y="148.7" text-anchor="end" font-family="Arial,Helvetica,sans-serif" font-size="10" fill="#555555">$4,500K</text>
<line x1="94.0" y1="108.4" x2="1064.0" y2="108.4" stroke="#E0E0E0" stroke-width="1" stroke-dasharray="4,4"/>
<text x="86" y="112.4" text-anchor="end" font-family="Arial,Helvetica,sans-serif" font-size="10" fill="#555555">$5,000K</text>
<line x1="94.0" y1="72.0" x2="1064.0" y2="72.0" stroke="#E0E0E0" stroke-width="1" stroke-dasharray="4,4"/>
<text x="86" y="76.0" text-anchor="end" font-family="Arial,Helvetica,sans-serif" font-size="10" fill="#555555">$5,500K</text>
<line x1="94" y1="72" x2="94" y2="472.0" stroke="#888888" stroke-width="1.5"/>
<line x1="94" y1="472.0" x2="1064.0" y2="472.0" stroke="#888888" stroke-width="1.5"/>
<text x="16" y="272" text-anchor="middle" font-family="Arial,Helvetica,sans-serif" font-size="11" fill="#444444" transform="rotate(-90,16,272)">Amount ($ Thousands)</text>
<rect x="109.59" y="425.82" width="26" height="46.18" fill="#6A1B4D" stroke="#6A1B4D" stroke-width="0.5" opacity="0.92"/>
<rect x="109.59" y="382.98" width="26" height="42.84" fill="#B71C1C" stroke="#B71C1C" stroke-width="0.5" opacity="0.92"/>
<rect x="109.59" y="345.38" width="26" height="37.60" fill="#D32F2F" stroke="#D32F2F" stroke-width="0.5" opacity="0.92"/>
<rect x="109.59" y="257.82" width="26" height="87.56" fill="url(#cl_hatch_ds)" stroke="#FFB74D" stroke-width="0.5" opacity="0.92"/>
<rect x="109.59" y="205.82" width="26" height="52.00" fill="#EF5350" stroke="#EF5350" stroke-width="0.5" opacity="0.92"/>
<text x="122.59" y="201.82" text-anchor="middle" font-family="Arial,Helvetica,sans-serif" font-size="8" font-weight="bold" fill="#B71C1C">$3,660K</text>
<rect x="140.59" y="407.64" width="26" height="64.36" fill="#1B5E20" stroke="#1B5E20" stroke-width="0.5" opacity="0.92"/>
<rect x="140.59" y="377.09" width="26" height="30.55" fill="#2E7D32" stroke="#2E7D32" stroke-width="0.5" opacity="0.92"/>
<rect x="140.59" y="353.45" width="26" height="23.64" fill="#388E3C" stroke="#388E3C" stroke-width="0.5" opacity="0.92"/>
<rect x="140.59" y="316.00" width="26" height="37.45" fill="url(#cl_hatch_noi)" stroke="#DCEDC8" stroke-width="0.5" opacity="0.92"/>
<rect x="140.59" y="299.64" width="26" height="16.36" fill="#66BB6A" stroke="#66BB6A" stroke-width="0.5" opacity="0.92"/>
<text x="153.59" y="295.64" text-anchor="middle" font-family="Arial,Helvetica,sans-serif" font-size="8" font-weight="bold" fill="#2E7D32">$2,370K</text>
<rect x="109.59" y="205.82" width="57.00" height="93.82" fill="#FFCDD2" opacity="0.30"/>
<text x="138.09" y="508.0" text-anchor="middle" font-family="Arial,Helvetica,sans-serif" font-size="8.5" fill="#B71C1C" font-weight="bold">0.65x</text>
<text x="138.09" y="492" text-anchor="middle" font-family="Arial,Helvetica,sans-serif" font-size="10" fill="#333333">2024</text>
<text x="138.09" y="502" text-anchor="middle" font-family="Arial,Helvetica,sans-serif" font-size="7.5" fill="#999999" font-style="italic">(partial)</text>
<rect x="197.77" y="425.96" width="26" height="46.04" fill="#6A1B4D" stroke="#6A1B4D" stroke-width="0.5" opacity="0.92"/>
<rect x="197.77" y="383.05" width="26" height="42.91" fill="#B71C1C" stroke="#B71C1C" stroke-width="0.5" opacity="0.92"/>
<rect x="197.77" y="345.31" width="26" height="37.75" fill="#D32F2F" stroke="#D32F2F" stroke-width="0.5" opacity="0.92"/>
<rect x="197.77" y="257.75" width="26" height="87.56" fill="url(#cl_hatch_ds)" stroke="#FFB74D" stroke-width="0.5" opacity="0.92"/>
<rect x="197.77" y="189.16" width="26" height="68.58" fill="#EF5350" stroke="#EF5350" stroke-width="0.5" opacity="0.92"/>
<text x="210.77" y="185.16" text-anchor="middle" font-family="Arial,Helvetica,sans-serif" font-size="8" font-weight="bold" fill="#B71C1C">$3,889K</text>
<rect x="228.77" y="404.73" width="26" height="67.27" fill="#1B5E20" stroke="#1B5E20" stroke-width="0.5" opacity="0.92"/>
<rect x="228.77" y="368.36" width="26" height="36.36" fill="#2E7D32" stroke="#2E7D32" stroke-width="0.5" opacity="0.92"/>
<rect x="228.77" y="349.82" width="26" height="18.55" fill="#388E3C" stroke="#388E3C" stroke-width="0.5" opacity="0.92"/>
<rect x="228.77" y="312.36" width="26" height="37.45" fill="url(#cl_hatch_noi)" stroke="#DCEDC8" stroke-width="0.5" opacity="0.92"/>
<rect x="228.77" y="274.18" width="26" height="38.18" fill="#66BB6A" stroke="#66BB6A" stroke-width="0.5" opacity="0.92"/>
<text x="241.77" y="270.18" text-anchor="middle" font-family="Arial,Helvetica,sans-serif" font-size="8" font-weight="bold" fill="#2E7D32">$2,720K</text>
<rect x="197.77" y="189.16" width="57.00" height="85.02" fill="#FFCDD2" opacity="0.30"/>
<text x="226.27" y="508.0" text-anchor="middle" font-family="Arial,Helvetica,sans-serif" font-size="8.5" fill="#B71C1C" font-weight="bold">0.70x</text>
<text x="226.27" y="492" text-anchor="middle" font-family="Arial,Helvetica,sans-serif" font-size="10" fill="#333333">2025</text>
<rect x="285.95" y="425.96" width="26" height="46.04" fill="#6A1B4D" stroke="#6A1B4D" stroke-width="0.5" opacity="0.92"/>
<rect x="285.95" y="383.05" width="26" height="42.91" fill="#B71C1C" stroke="#B71C1C" stroke-width="0.5" opacity="0.92"/>
<rect x="285.95" y="345.31" width="26" height="37.75" fill="#D32F2F" stroke="#D32F2F" stroke-width="0.5" opacity="0.92"/>
<rect x="285.95" y="257.75" width="26" height="87.56" fill="url(#cl_hatch_ds)" stroke="#FFB74D" stroke-width="0.5" opacity="0.92"/>
<rect x="285.95" y="189.16" width="26" height="68.58" fill="#EF5350" stroke="#EF5350" stroke-width="0.5" opacity="0.92"/>
<text x="298.95" y="185.16" text-anchor="middle" font-family="Arial,Helvetica,sans-serif" font-size="8" font-weight="bold" fill="#B71C1C">$3,889K</text>
<rect x="316.95" y="402.55" width="26" height="69.45" fill="#1B5E20" stroke="#1B5E20" stroke-width="0.5" opacity="0.92"/>
<rect x="316.95" y="365.09" width="26" height="37.45" fill="#2E7D32" stroke="#2E7D32" stroke-width="0.5" opacity="0.92"/>
<rect x="316.95" y="345.82" width="26" height="19.27" fill="#388E3C" stroke="#388E3C" stroke-width="0.5" opacity="0.92"/>
<rect x="316.95" y="307.27" width="26" height="38.55" fill="url(#cl_hatch_noi)" stroke="#DCEDC8" stroke-width="0.5" opacity="0.92"/>
<rect x="316.95" y="267.64" width="26" height="39.64" fill="#66BB6A" stroke="#66BB6A" stroke-width="0.5" opacity="0.92"/>
<text x="329.95" y="263.64" text-anchor="middle" font-family="Arial,Helvetica,sans-serif" font-size="8" font-weight="bold" fill="#2E7D32">$2,810K</text>
<rect x="285.95" y="189.16" width="57.00" height="78.47" fill="#FFCDD2" opacity="0.30"/>
<text x="314.45" y="508.0" text-anchor="middle" font-family="Arial,Helvetica,sans-serif" font-size="8.5" fill="#E65100" font-weight="bold">0.72x</text>
<text x="314.45" y="492" text-anchor="middle" font-family="Arial,Helvetica,sans-serif" font-size="10" fill="#333333">2026</text>
<rect x="374.14" y="425.96" width="26" height="46.04" fill="#6A1B4D" stroke="#6A1B4D" stroke-width="0.5" opacity="0.92"/>
<rect x="374.14" y="383.05" width="26" height="42.91" fill="#B71C1C" stroke="#B71C1C" stroke-width="0.5" opacity="0.92"/>
<rect x="374.14" y="345.31" width="26" height="37.75" fill="#D32F2F" stroke="#D32F2F" stroke-width="0.5" opacity="0.92"/>
<rect x="374.14" y="257.75" width="26" height="87.56" fill="url(#cl_hatch_ds)" stroke="#FFB74D" stroke-width="0.5" opacity="0.92"/>
<rect x="374.14" y="189.16" width="26" height="68.58" fill="#EF5350" stroke="#EF5350" stroke-width="0.5" opacity="0.92"/>
<text x="387.14" y="185.16" text-anchor="middle" font-family="Arial,Helvetica,sans-serif" font-size="8" font-weight="bold" fill="#B71C1C">$3,889K</text>
<rect x="405.14" y="400.73" width="26" height="71.27" fill="#1B5E20" stroke="#1B5E20" stroke-width="0.5" opacity="0.92"/>
<rect x="405.14" y="362.18" width="26" height="38.55" fill="#2E7D32" stroke="#2E7D32" stroke-width="0.5" opacity="0.92"/>
<rect x="405.14" y="342.55" width="26" height="19.64" fill="#388E3C" stroke="#388E3C" stroke-width="0.5" opacity="0.92"/>
<rect x="405.14" y="302.55" width="26" height="40.00" fill="url(#cl_hatch_noi)" stroke="#DCEDC8" stroke-width="0.5" opacity="0.92"/>
<rect x="405.14" y="261.82" width="26" height="40.73" fill="#66BB6A" stroke="#66BB6A" stroke-width="0.5" opacity="0.92"/>
<text x="418.14" y="257.82" text-anchor="middle" font-family="Arial,Helvetica,sans-serif" font-size="8" font-weight="bold" fill="#2E7D32">$2,890K</text>
<rect x="374.14" y="189.16" width="57.00" height="72.65" fill="#FFCDD2" opacity="0.30"/>
<text x="402.64" y="508.0" text-anchor="middle" font-family="Arial,Helvetica,sans-serif" font-size="8.5" fill="#E65100" font-weight="bold">0.74x</text>
<text x="402.64" y="492" text-anchor="middle" font-family="Arial,Helvetica,sans-serif" font-size="10" fill="#333333">2027</text>
<rect x="462.32" y="425.96" width="26" height="46.04" fill="#6A1B4D" stroke="#6A1B4D" stroke-width="0.5" opacity="0.92"/>
<rect x="462.32" y="383.05" width="26" height="42.91" fill="#B71C1C" stroke="#B71C1C" stroke-width="0.5" opacity="0.92"/>
<rect x="462.32" y="345.31" width="26" height="37.75" fill="#D32F2F" stroke="#D32F2F" stroke-width="0.5" opacity="0.92"/>
<rect x="462.32" y="257.75" width="26" height="87.56" fill="url(#cl_hatch_ds)" stroke="#FFB74D" stroke-width="0.5" opacity="0.92"/>
<rect x="462.32" y="189.16" width="26" height="68.58" fill="#EF5350" stroke="#EF5350" stroke-width="0.5" opacity="0.92"/>
<text x="475.32" y="185.16" text-anchor="middle" font-family="Arial,Helvetica,sans-serif" font-size="8" font-weight="bold" fill="#B71C1C">$3,889K</text>
<rect x="493.32" y="398.55" width="26" height="73.45" fill="#1B5E20" stroke="#1B5E20" stroke-width="0.5" opacity="0.92"/>
<rect x="493.32" y="358.55" width="26" height="40.00" fill="#2E7D32" stroke="#2E7D32" stroke-width="0.5" opacity="0.92"/>
<rect x="493.32" y="338.55" width="26" height="20.00" fill="#388E3C" stroke="#388E3C" stroke-width="0.5" opacity="0.92"/>
<rect x="493.32" y="297.82" width="26" height="40.73" fill="url(#cl_hatch_noi)" stroke="#DCEDC8" stroke-width="0.5" opacity="0.92"/>
<rect x="493.32" y="256.00" width="26" height="41.82" fill="#66BB6A" stroke="#66BB6A" stroke-width="0.5" opacity="0.92"/>
<text x="506.32" y="252.00" text-anchor="middle" font-family="Arial,Helvetica,sans-serif" font-size="8" font-weight="bold" fill="#2E7D32">$2,970K</text>
<rect x="462.32" y="189.16" width="57.00" height="66.84" fill="#FFCDD2" opacity="0.30"/>
<text x="490.82" y="508.0" text-anchor="middle" font-family="Arial,Helvetica,sans-serif" font-size="8.5" fill="#E65100" font-weight="bold">0.76x</text>
<text x="490.82" y="492" text-anchor="middle" font-family="Arial,Helvetica,sans-serif" font-size="10" fill="#333333">2028</text>
<rect x="550.50" y="425.96" width="26" height="46.04" fill="#6A1B4D" stroke="#6A1B4D" stroke-width="0.5" opacity="0.92"/>
<rect x="550.50" y="383.05" width="26" height="42.91" fill="#B71C1C" stroke="#B71C1C" stroke-width="0.5" opacity="0.92"/>
<rect x="550.50" y="345.31" width="26" height="37.75" fill="#D32F2F" stroke="#D32F2F" stroke-width="0.5" opacity="0.92"/>
<rect x="550.50" y="257.75" width="26" height="87.56" fill="url(#cl_hatch_ds)" stroke="#FFB74D" stroke-width="0.5" opacity="0.92"/>
<rect x="550.50" y="189.16" width="26" height="68.58" fill="#EF5350" stroke="#EF5350" stroke-width="0.5" opacity="0.92"/>
<text x="563.50" y="185.16" text-anchor="middle" font-family="Arial,Helvetica,sans-serif" font-size="8" font-weight="bold" fill="#B71C1C">$3,889K</text>
<rect x="581.50" y="396.36" width="26" height="75.64" fill="#1B5E20" stroke="#1B5E20" stroke-width="0.5" opacity="0.92"/>
<rect x="581.50" y="355.64" width="26" height="40.73" fill="#2E7D32" stroke="#2E7D32" stroke-width="0.5" opacity="0.92"/>
<rect x="581.50" y="334.91" width="26" height="20.73" fill="#388E3C" stroke="#388E3C" stroke-width="0.5" opacity="0.92"/>
<rect x="581.50" y="292.73" width="26" height="42.18" fill="url(#cl_hatch_noi)" stroke="#DCEDC8" stroke-width="0.5" opacity="0.92"/>
<rect x="581.50" y="249.45" width="26" height="43.27" fill="#66BB6A" stroke="#66BB6A" stroke-width="0.5" opacity="0.92"/>
<text x="594.50" y="245.45" text-anchor="middle" font-family="Arial,Helvetica,sans-serif" font-size="8" font-weight="bold" fill="#2E7D32">$3,060K</text>
<rect x="550.50" y="189.16" width="57.00" height="60.29" fill="#FFCDD2" opacity="0.30"/>
<text x="579.00" y="508.0" text-anchor="middle" font-family="Arial,Helvetica,sans-serif" font-size="8.5" fill="#E65100" font-weight="bold">0.79x</text>
<text x="579.00" y="492" text-anchor="middle" font-family="Arial,Helvetica,sans-serif" font-size="10" fill="#333333">2029</text>
<rect x="638.68" y="425.96" width="26" height="46.04" fill="#6A1B4D" stroke="#6A1B4D" stroke-width="0.5" opacity="0.92"/>
<rect x="638.68" y="383.05" width="26" height="42.91" fill="#B71C1C" stroke="#B71C1C" stroke-width="0.5" opacity="0.92"/>
<rect x="638.68" y="345.31" width="26" height="37.75" fill="#D32F2F" stroke="#D32F2F" stroke-width="0.5" opacity="0.92"/>
<rect x="638.68" y="257.75" width="26" height="87.56" fill="url(#cl_hatch_ds)" stroke="#FFB74D" stroke-width="0.5" opacity="0.92"/>
<rect x="638.68" y="189.16" width="26" height="68.58" fill="#EF5350" stroke="#EF5350" stroke-width="0.5" opacity="0.92"/>
<text x="651.68" y="185.16" text-anchor="middle" font-family="Arial,Helvetica,sans-serif" font-size="8" font-weight="bold" fill="#B71C1C">$3,889K</text>
<rect x="669.68" y="393.82" width="26" height="78.18" fill="#1B5E20" stroke="#1B5E20" stroke-width="0.5" opacity="0.92"/>
<rect x="669.68" y="351.64" width="26" height="42.18" fill="#2E7D32" stroke="#2E7D32" stroke-width="0.5" opacity="0.92"/>
<rect x="669.68" y="330.18" width="26" height="21.45" fill="#388E3C" stroke="#388E3C" stroke-width="0.5" opacity="0.92"/>
<rect x="669.68" y="286.55" width="26" height="43.64" fill="url(#cl_hatch_noi)" stroke="#DCEDC8" stroke-width="0.5" opacity="0.92"/>
<rect x="669.68" y="242.18" width="26" height="44.36" fill="#66BB6A" stroke="#66BB6A" stroke-width="0.5" opacity="0.92"/>
<text x="682.68" y="238.18" text-anchor="middle" font-family="Arial,Helvetica,sans-serif" font-size="8" font-weight="bold" fill="#2E7D32">$3,160K</text>
<rect x="638.68" y="189.16" width="57.00" height="53.02" fill="#FFCDD2" opacity="0.30"/>
<text x="667.18" y="508.0" text-anchor="middle" font-family="Arial,Helvetica,sans-serif" font-size="8.5" fill="#E65100" font-weight="bold">0.81x</text>
<text x="667.18" y="492" text-anchor="middle" font-family="Arial,Helvetica,sans-serif" font-size="10" fill="#333333">2030</text>
<rect x="726.86" y="425.96" width="26" height="46.04" fill="#6A1B4D" stroke="#6A1B4D" stroke-width="0.5" opacity="0.92"/>
<rect x="726.86" y="383.05" width="26" height="42.91" fill="#B71C1C" stroke="#B71C1C" stroke-width="0.5" opacity="0.92"/>
<rect x="726.86" y="345.31" width="26" height="37.75" fill="#D32F2F" stroke="#D32F2F" stroke-width="0.5" opacity="0.92"/>
<rect x="726.86" y="257.75" width="26" height="87.56" fill="url(#cl_hatch_ds)" stroke="#FFB74D" stroke-width="0.5" opacity="0.92"/>
<rect x="726.86" y="189.16" width="26" height="68.58" fill="#EF5350" stroke="#EF5350" stroke-width="0.5" opacity="0.92"/>
<text x="739.86" y="185.16" text-anchor="middle" font-family="Arial,Helvetica,sans-serif" font-size="8" font-weight="bold" fill="#B71C1C">$3,889K</text>
<rect x="757.86" y="391.64" width="26" height="80.36" fill="#1B5E20" stroke="#1B5E20" stroke-width="0.5" opacity="0.92"/>
<rect x="757.86" y="348.36" width="26" height="43.27" fill="#2E7D32" stroke="#2E7D32" stroke-width="0.5" opacity="0.92"/>
<rect x="757.86" y="326.55" width="26" height="21.82" fill="#388E3C" stroke="#388E3C" stroke-width="0.5" opacity="0.92"/>
<rect x="757.86" y="281.82" width="26" height="44.73" fill="url(#cl_hatch_noi)" stroke="#DCEDC8" stroke-width="0.5" opacity="0.92"/>
<rect x="757.86" y="236.00" width="26" height="45.82" fill="#66BB6A" stroke="#66BB6A" stroke-width="0.5" opacity="0.92"/>
<text x="770.86" y="232.00" text-anchor="middle" font-family="Arial,Helvetica,sans-serif" font-size="8" font-weight="bold" fill="#2E7D32">$3,245K</text>
<rect x="726.86" y="189.16" width="57.00" height="46.84" fill="#FFCDD2" opacity="0.30"/>
<text x="755.36" y="508.0" text-anchor="middle" font-family="Arial,Helvetica,sans-serif" font-size="8.5" fill="#E65100" font-weight="bold">0.83x</text>
<text x="755.36" y="492" text-anchor="middle" font-family="Arial,Helvetica,sans-serif" font-size="10" fill="#333333">2031</text>
<rect x="815.05" y="425.96" width="26" height="46.04" fill="#6A1B4D" stroke="#6A1B4D" stroke-width="0.5" opacity="0.92"/>
<rect x="815.05" y="383.05" width="26" height="42.91" fill="#B71C1C" stroke="#B71C1C" stroke-width="0.5" opacity="0.92"/>
<rect x="815.05" y="345.31" width="26" height="37.75" fill="#D32F2F" stroke="#D32F2F" stroke-width="0.5" opacity="0.92"/>
<rect x="815.05" y="257.75" width="26" height="87.56" fill="url(#cl_hatch_ds)" stroke="#FFB74D" stroke-width="0.5" opacity="0.92"/>
<rect x="815.05" y="189.16" width="26" height="68.58" fill="#EF5350" stroke="#EF5350" stroke-width="0.5" opacity="0.92"/>
<text x="828.05" y="185.16" text-anchor="middle" font-family="Arial,Helvetica,sans-serif" font-size="8" font-weight="bold" fill="#B71C1C">$3,889K</text>
<rect x="846.05" y="389.09" width="26" height="82.91" fill="#1B5E20" stroke="#1B5E20" stroke-width="0.5" opacity="0.92"/>
<rect x="846.05" y="344.36" width="26" height="44.73" fill="#2E7D32" stroke="#2E7D32" stroke-width="0.5" opacity="0.92"/>
<rect x="846.05" y="321.45" width="26" height="22.91" fill="#388E3C" stroke="#388E3C" stroke-width="0.5" opacity="0.92"/>
<rect x="846.05" y="275.27" width="26" height="46.18" fill="url(#cl_hatch_noi)" stroke="#DCEDC8" stroke-width="0.5" opacity="0.92"/>
<rect x="846.05" y="228.00" width="26" height="47.27" fill="#66BB6A" stroke="#66BB6A" stroke-width="0.5" opacity="0.92"/>
<text x="859.05" y="224.00" text-anchor="middle" font-family="Arial,Helvetica,sans-serif" font-size="8" font-weight="bold" fill="#2E7D32">$3,355K</text>
<rect x="815.05" y="189.16" width="57.00" height="38.84" fill="#FFCDD2" opacity="0.30"/>
<text x="843.55" y="508.0" text-anchor="middle" font-family="Arial,Helvetica,sans-serif" font-size="8.5" fill="#E65100" font-weight="bold">0.86x</text>
<text x="843.55" y="492" text-anchor="middle" font-family="Arial,Helvetica,sans-serif" font-size="10" fill="#333333">2032</text>
<rect x="903.23" y="425.96" width="26" height="46.04" fill="#6A1B4D" stroke="#6A1B4D" stroke-width="0.5" opacity="0.92"/>
<rect x="903.23" y="383.05" width="26" height="42.91" fill="#B71C1C" stroke="#B71C1C" stroke-width="0.5" opacity="0.92"/>
<rect x="903.23" y="345.31" width="26" height="37.75" fill="#D32F2F" stroke="#D32F2F" stroke-width="0.5" opacity="0.92"/>
<rect x="903.23" y="257.75" width="26" height="87.56" fill="url(#cl_hatch_ds)" stroke="#FFB74D" stroke-width="0.5" opacity="0.92"/>
<rect x="903.23" y="189.16" width="26" height="68.58" fill="#EF5350" stroke="#EF5350" stroke-width="0.5" opacity="0.92"/>
<text x="916.23" y="185.16" text-anchor="middle" font-family="Arial,Helvetica,sans-serif" font-size="8" font-weight="bold" fill="#B71C1C">$3,889K</text>
<rect x="934.23" y="386.55" width="26" height="85.45" fill="#1B5E20" stroke="#1B5E20" stroke-width="0.5" opacity="0.92"/>
<rect x="934.23" y="340.36" width="26" height="46.18" fill="#2E7D32" stroke="#2E7D32" stroke-width="0.5" opacity="0.92"/>
<rect x="934.23" y="316.73" width="26" height="23.64" fill="#388E3C" stroke="#388E3C" stroke-width="0.5" opacity="0.92"/>
<rect x="934.23" y="269.09" width="26" height="47.64" fill="url(#cl_hatch_noi)" stroke="#DCEDC8" stroke-width="0.5" opacity="0.92"/>
<rect x="934.23" y="220.73" width="26" height="48.36" fill="#66BB6A" stroke="#66BB6A" stroke-width="0.5" opacity="0.92"/>
<text x="947.23" y="216.73" text-anchor="middle" font-family="Arial,Helvetica,sans-serif" font-size="8" font-weight="bold" fill="#2E7D32">$3,455K</text>
<rect x="903.23" y="189.16" width="57.00" height="31.56" fill="#FFCDD2" opacity="0.30"/>
<text x="931.73" y="508.0" text-anchor="middle" font-family="Arial,Helvetica,sans-serif" font-size="8.5" fill="#E65100" font-weight="bold">0.89x</text>
<text x="931.73" y="492" text-anchor="middle" font-family="Arial,Helvetica,sans-serif" font-size="10" fill="#333333">2033</text>
<rect x="991.41" y="425.96" width="26" height="46.04" fill="#6A1B4D" stroke="#6A1B4D" stroke-width="0.5" opacity="0.92"/>
<rect x="991.41" y="383.05" width="26" height="42.91" fill="#B71C1C" stroke="#B71C1C" stroke-width="0.5" opacity="0.92"/>
<rect x="991.41" y="345.31" width="26" height="37.75" fill="#D32F2F" stroke="#D32F2F" stroke-width="0.5" opacity="0.92"/>
<rect x="991.41" y="257.75" width="26" height="87.56" fill="url(#cl_hatch_ds)" stroke="#FFB74D" stroke-width="0.5" opacity="0.92"/>
<rect x="991.41" y="189.16" width="26" height="68.58" fill="#EF5350" stroke="#EF5350" stroke-width="0.5" opacity="0.92"/>
<text x="1004.41" y="185.16" text-anchor="middle" font-family="Arial,Helvetica,sans-serif" font-size="8" font-weight="bold" fill="#B71C1C">$3,889K</text>
<rect x="1022.41" y="384.36" width="26" height="87.64" fill="#1B5E20" stroke="#1B5E20" stroke-width="0.5" opacity="0.92"/>
<rect x="1022.41" y="337.09" width="26" height="47.27" fill="#2E7D32" stroke="#2E7D32" stroke-width="0.5" opacity="0.92"/>
<rect x="1022.41" y="313.09" width="26" height="24.00" fill="#388E3C" stroke="#388E3C" stroke-width="0.5" opacity="0.92"/>
<rect x="1022.41" y="264.36" width="26" height="48.73" fill="url(#cl_hatch_noi)" stroke="#DCEDC8" stroke-width="0.5" opacity="0.92"/>
<rect x="1022.41" y="214.18" width="26" height="50.18" fill="#66BB6A" stroke="#66BB6A" stroke-width="0.5" opacity="0.92"/>
<text x="1035.41" y="210.18" text-anchor="middle" font-family="Arial,Helvetica,sans-serif" font-size="8" font-weight="bold" fill="#2E7D32">$3,545K</text>
<rect x="991.41" y="189.16" width="57.00" height="25.02" fill="#FFCDD2" opacity="0.30"/>
<text x="1019.91" y="508.0" text-anchor="middle" font-family="Arial,Helvetica,sans-serif" font-size="8.5" fill="#558B2F" font-weight="bold">0.91x</text>
<text x="1019.91" y="492" text-anchor="middle" font-family="Arial,Helvetica,sans-serif" font-size="10" fill="#333333">2034</text>
<text x="86" y="512.0" text-anchor="end" font-family="Arial,Helvetica,sans-serif" font-size="8.5" fill="#555555" font-style="italic">DSCR</text>
<text x="1004.4" y="155.2" text-anchor="middle" font-family="Arial,Helvetica,sans-serif" font-size="8" fill="#B71C1C" font-weight="bold">+$33M total</text>
<text x="1004.4" y="166.2" text-anchor="middle" font-family="Arial,Helvetica,sans-serif" font-size="8" fill="#B71C1C" font-weight="bold">balloon exposure</text>
<text x="1004.4" y="177.2" text-anchor="middle" font-family="Arial,Helvetica,sans-serif" font-size="8" fill="#B71C1C" font-weight="bold">excl. from chart</text>
<line x1="1004.4" y1="179.2" x2="1004.4" y2="189.2" stroke="#B71C1C" stroke-width="1" stroke-dasharray="3,2"/>
<rect x="42" y="510" width="1020" height="70" fill="white" stroke="#DDDDDD" stroke-width="1" rx="4" opacity="0.92"/>
<text x="70" y="524" font-family="Arial,Helvetica,sans-serif" font-size="9.5" font-weight="bold" fill="#B71C1C">Debt Service (DS) ← stacked left bar</text>
<text x="480" y="524" font-family="Arial,Helvetica,sans-serif" font-size="9.5" font-weight="bold" fill="#2E7D32">NOI ← stacked right bar</text>
<rect x="50" y="536" width="12" height="12" fill="#6A1B4D" stroke="#6A1B4D" stroke-width="0.5" rx="1"/>
<rect x="140" y="536" width="12" height="12" fill="#1B5E20" stroke="#1B5E20" stroke-width="0.5" rx="1"/>
<text x="66" y="546" font-family="Arial,Helvetica,sans-serif" font-size="9" fill="#333333">Shandoka</text>
<rect x="250" y="536" width="12" height="12" fill="#B71C1C" stroke="#B71C1C" stroke-width="0.5" rx="1"/>
<rect x="340" y="536" width="12" height="12" fill="#2E7D32" stroke="#2E7D32" stroke-width="0.5" rx="1"/>
<text x="266" y="546" font-family="Arial,Helvetica,sans-serif" font-size="9" fill="#333333">Sunnyside</text>
<rect x="450" y="536" width="12" height="12" fill="#D32F2F" stroke="#D32F2F" stroke-width="0.5" rx="1"/>
<rect x="540" y="536" width="12" height="12" fill="#388E3C" stroke="#388E3C" stroke-width="0.5" rx="1"/>
<text x="466" y="546" font-family="Arial,Helvetica,sans-serif" font-size="9" fill="#333333">Virginia Placer</text>
<rect x="650" y="536" width="12" height="12" fill="url(#cl_hatch_ds)" stroke="#E65100" stroke-width="0.5" rx="1"/>
<rect x="740" y="536" width="12" height="12" fill="url(#cl_hatch_noi)" stroke="#558B2F" stroke-width="0.5" rx="1"/>
<text x="666" y="546" font-family="Arial,Helvetica,sans-serif" font-size="9" fill="#333333">CanyonLands ⚠</text>
<rect x="850" y="536" width="12" height="12" fill="#EF5350" stroke="#EF5350" stroke-width="0.5" rx="1"/>
<rect x="940" y="536" width="12" height="12" fill="#66BB6A" stroke="#66BB6A" stroke-width="0.5" rx="1"/>
<text x="866" y="546" font-family="Arial,Helvetica,sans-serif" font-size="9" fill="#333333">VooDoo</text>
<rect x="50" y="556" width="50" height="10" fill="#FFCDD2" opacity="0.7" rx="1"/>
<text x="106" y="565" font-family="Arial,Helvetica,sans-serif" font-size="8.5" fill="#999999" font-style="italic">Pink band = annual shortfall (NOI &lt; total DS)</text>
<text x="370" y="565" font-family="Arial,Helvetica,sans-serif" font-size="8.5" fill="#E65100" font-style="italic">⚠ CanyonLands = conduit bond, no audited financials (THA Board memo only)</text>
<text x="550" y="588" text-anchor="middle" font-family="Arial,Helvetica,sans-serif" font-size="7.5" fill="#AAAAAA" font-style="italic">NOI assumes 15% vacancy rate applied to all projects.  Sources: 2023 &amp; 2024 Town of Telluride Audited Financials; THA Board memo June 2024.  DS = interest + scheduled principal.  Balloons: VooDoo $9.5M (2034), CanyonLands $14.7M (2034), VA Placer $3.9M (2027), Sunnyside $5.5M (2033).</text>
</svg>