<svg xmlns="http://www.w3.org/2000/svg" viewBox="0 0 1100 600" width="1100" height="600">
<defs>
  <pattern id="cl_hatch_ds" patternUnits="userSpaceOnUse" width="6" height="6" patternTransform="rotate(45)">
    <rect width="6" height="6" fill="#E65100"/>
    <line x1="0" y1="0" x2="0" y2="6" stroke="#FFB74D" stroke-width="2.5"/>
  </pattern>
  <pattern id="cl_hatch_noi" patternUnits="userSpaceOnUse" width="6" height="6" patternTransform="rotate(45)">
    <rect width="6" height="6" fill="#558B2F"/>
    <line x1="0" y1="0" x2="0" y2="6" stroke="#DCEDC8" stroke-width="2.5"/>
  </pattern>
</defs>
<rect width="1100" height="600" fill="#F4F6F9" rx="6"/>
<rect x="0" y="0" width="1100" height="68" fill="#1F4E79" rx="6"/>
<rect x="0" y="10" width="1100" height="58" fill="#1F4E79"/>
<text x="550" y="28" text-anchor="middle" font-family="Arial,Helvetica,sans-serif" font-size="14.5" font-weight="bold" fill="white">THA Portfolio (All 5 Projects) — Annual DS vs. NOI (2024–2034) | Balloons Amortized | 15% Vacancy</text>
<text x="550" y="50" text-anchor="middle" font-family="Arial,Helvetica,sans-serif" font-size="10" fill="#BDD7EE" font-style="italic">Fully-amortizing DS $6,199K/yr  ·  NOI haircut 15% vacancy  ·  vs. regular DS $3,889K/yr  ·  +$2,310K/yr to eliminate $33.0M balloon risk  ·  2025 DSCR 0.44x</text>
<rect x="94" y="72" width="970" height="400" fill="white" stroke="#CCCCCC" stroke-width="1" rx="2"/>
<line x1="94.0" y1="472.0" x2="1064.0" y2="472.0" stroke="#AAAAAA" stroke-width="1" stroke-dasharray="4,4"/>
<text x="86" y="476.0" text-anchor="end" font-family="Arial,Helvetica,sans-serif" font-size="10" fill="#555555">$0K</text>
<line x1="94.0" y1="422.0" x2="1064.0" y2="422.0" stroke="#E0E0E0" stroke-width="1" stroke-dasharray="4,4"/>
<text x="86" y="426.0" text-anchor="end" font-family="Arial,Helvetica,sans-serif" font-size="10" fill="#555555">$1,000K</text>
<line x1="94.0" y1="372.0" x2="1064.0" y2="372.0" stroke="#E0E0E0" stroke-width="1" stroke-dasharray="4,4"/>
<text x="86" y="376.0" text-anchor="end" font-family="Arial,Helvetica,sans-serif" font-size="10" fill="#555555">$2,000K</text>
<line x1="94.0" y1="322.0" x2="1064.0" y2="322.0" stroke="#E0E0E0" stroke-width="1" stroke-dasharray="4,4"/>
<text x="86" y="326.0" text-anchor="end" font-family="Arial,Helvetica,sans-serif" font-size="10" fill="#555555">$3,000K</text>
<line x1="94.0" y1="272.0" x2="1064.0" y2="272.0" stroke="#E0E0E0" stroke-width="1" stroke-dasharray="4,4"/>
<text x="86" y="276.0" text-anchor="end" font-family="Arial,Helvetica,sans-serif" font-size="10" fill="#555555">$4,000K</text>
<line x1="94.0" y1="222.0" x2="1064.0" y2="222.0" stroke="#E0E0E0" stroke-width="1" stroke-dasharray="4,4"/>
<text x="86" y="226.0" text-anchor="end" font-family="Arial,Helvetica,sans-serif" font-size="10" fill="#555555">$5,000K</text>
<line x1="94.0" y1="172.0" x2="1064.0" y2="172.0" stroke="#E0E0E0" stroke-width="1" stroke-dasharray="4,4"/>
<text x="86" y="176.0" text-anchor="end" font-family="Arial,Helvetica,sans-serif" font-size="10" fill="#555555">$6,000K</text>
<line x1="94.0" y1="122.0" x2="1064.0" y2="122.0" stroke="#E0E0E0" stroke-width="1" stroke-dasharray="4,4"/>
<text x="86" y="126.0" text-anchor="end" font-family="Arial,Helvetica,sans-serif" font-size="10" fill="#555555">$7,000K</text>
<line x1="94.0" y1="72.0" x2="1064.0" y2="72.0" stroke="#E0E0E0" stroke-width="1" stroke-dasharray="4,4"/>
<text x="86" y="76.0" text-anchor="end" font-family="Arial,Helvetica,sans-serif" font-size="10" fill="#555555">$8,000K</text>
<line x1="94" y1="72" x2="94" y2="472.0" stroke="#888888" stroke-width="1.5"/>
<line x1="94" y1="472.0" x2="1064.0" y2="472.0" stroke="#888888" stroke-width="1.5"/>
<text x="16" y="272" text-anchor="middle" font-family="Arial,Helvetica,sans-serif" font-size="11" fill="#444444" transform="rotate(-90,16,272)">Amount ($ Thousands)</text>
<rect x="109.59" y="440.25" width="26" height="31.75" fill="#6A1B4D" stroke="#6A1B4D" stroke-width="0.5" opacity="0.92"/>
<rect x="109.59" y="410.80" width="26" height="29.45" fill="#B71C1C" stroke="#B71C1C" stroke-width="0.5" opacity="0.92"/>
<rect x="109.59" y="384.95" width="26" height="25.85" fill="#D32F2F" stroke="#D32F2F" stroke-width="0.5" opacity="0.92"/>
<rect x="109.59" y="324.75" width="26" height="60.20" fill="url(#cl_hatch_ds)" stroke="#FFB74D" stroke-width="0.5" opacity="0.92"/>
<rect x="109.59" y="289.00" width="26" height="35.75" fill="#EF5350" stroke="#EF5350" stroke-width="0.5" opacity="0.92"/>
<text x="122.59" y="285.00" text-anchor="middle" font-family="Arial,Helvetica,sans-serif" font-size="8" font-weight="bold" fill="#B71C1C">$3,660K</text>
<rect x="140.59" y="427.75" width="26" height="44.25" fill="#1B5E20" stroke="#1B5E20" stroke-width="0.5" opacity="0.92"/>
<rect x="140.59" y="406.75" width="26" height="21.00" fill="#2E7D32" stroke="#2E7D32" stroke-width="0.5" opacity="0.92"/>
<rect x="140.59" y="390.50" width="26" height="16.25" fill="#388E3C" stroke="#388E3C" stroke-width="0.5" opacity="0.92"/>
<rect x="140.59" y="364.75" width="26" height="25.75" fill="url(#cl_hatch_noi)" stroke="#DCEDC8" stroke-width="0.5" opacity="0.92"/>
<rect x="140.59" y="353.50" width="26" height="11.25" fill="#66BB6A" stroke="#66BB6A" stroke-width="0.5" opacity="0.92"/>
<text x="153.59" y="349.50" text-anchor="middle" font-family="Arial,Helvetica,sans-serif" font-size="8" font-weight="bold" fill="#2E7D32">$2,370K</text>
<rect x="109.59" y="289.00" width="57.00" height="64.50" fill="#FFCDD2" opacity="0.30"/>
<text x="138.09" y="508.0" text-anchor="middle" font-family="Arial,Helvetica,sans-serif" font-size="8.5" fill="#B71C1C" font-weight="bold">0.65x</text>
<text x="138.09" y="492" text-anchor="middle" font-family="Arial,Helvetica,sans-serif" font-size="10" fill="#333333">2024</text>
<text x="138.09" y="502" text-anchor="middle" font-family="Arial,Helvetica,sans-serif" font-size="7.5" fill="#999999" font-style="italic">(partial)</text>
<rect x="197.77" y="440.35" width="26" height="31.65" fill="#6A1B4D" stroke="#6A1B4D" stroke-width="0.5" opacity="0.92"/>
<rect x="197.77" y="390.20" width="26" height="50.15" fill="#B71C1C" stroke="#B71C1C" stroke-width="0.5" opacity="0.92"/>
<rect x="197.77" y="359.55" width="26" height="30.65" fill="#D32F2F" stroke="#D32F2F" stroke-width="0.5" opacity="0.92"/>
<rect x="197.77" y="244.40" width="26" height="115.15" fill="url(#cl_hatch_ds)" stroke="#FFB74D" stroke-width="0.5" opacity="0.92"/>
<rect x="197.77" y="162.05" width="26" height="82.35" fill="#EF5350" stroke="#EF5350" stroke-width="0.5" opacity="0.92"/>
<text x="210.77" y="158.05" text-anchor="middle" font-family="Arial,Helvetica,sans-serif" font-size="8" font-weight="bold" fill="#B71C1C">$6,199K</text>
<rect x="228.77" y="425.75" width="26" height="46.25" fill="#1B5E20" stroke="#1B5E20" stroke-width="0.5" opacity="0.92"/>
<rect x="228.77" y="400.75" width="26" height="25.00" fill="#2E7D32" stroke="#2E7D32" stroke-width="0.5" opacity="0.92"/>
<rect x="228.77" y="388.00" width="26" height="12.75" fill="#388E3C" stroke="#388E3C" stroke-width="0.5" opacity="0.92"/>
<rect x="228.77" y="362.25" width="26" height="25.75" fill="url(#cl_hatch_noi)" stroke="#DCEDC8" stroke-width="0.5" opacity="0.92"/>
<rect x="228.77" y="336.00" width="26" height="26.25" fill="#66BB6A" stroke="#66BB6A" stroke-width="0.5" opacity="0.92"/>
<text x="241.77" y="332.00" text-anchor="middle" font-family="Arial,Helvetica,sans-serif" font-size="8" font-weight="bold" fill="#2E7D32">$2,720K</text>
<rect x="197.77" y="162.05" width="57.00" height="173.95" fill="#FFCDD2" opacity="0.30"/>
<text x="226.27" y="508.0" text-anchor="middle" font-family="Arial,Helvetica,sans-serif" font-size="8.5" fill="#B71C1C" font-weight="bold">0.44x</text>
<text x="226.27" y="492" text-anchor="middle" font-family="Arial,Helvetica,sans-serif" font-size="10" fill="#333333">2025</text>
<rect x="285.95" y="440.35" width="26" height="31.65" fill="#6A1B4D" stroke="#6A1B4D" stroke-width="0.5" opacity="0.92"/>
<rect x="285.95" y="390.20" width="26" height="50.15" fill="#B71C1C" stroke="#B71C1C" stroke-width="0.5" opacity="0.92"/>
<rect x="285.95" y="359.55" width="26" height="30.65" fill="#D32F2F" stroke="#D32F2F" stroke-width="0.5" opacity="0.92"/>
<rect x="285.95" y="244.40" width="26" height="115.15" fill="url(#cl_hatch_ds)" stroke="#FFB74D" stroke-width="0.5" opacity="0.92"/>
<rect x="285.95" y="162.05" width="26" height="82.35" fill="#EF5350" stroke="#EF5350" stroke-width="0.5" opacity="0.92"/>
<text x="298.95" y="158.05" text-anchor="middle" font-family="Arial,Helvetica,sans-serif" font-size="8" font-weight="bold" fill="#B71C1C">$6,199K</text>
<rect x="316.95" y="424.25" width="26" height="47.75" fill="#1B5E20" stroke="#1B5E20" stroke-width="0.5" opacity="0.92"/>
<rect x="316.95" y="398.50" width="26" height="25.75" fill="#2E7D32" stroke="#2E7D32" stroke-width="0.5" opacity="0.92"/>
<rect x="316.95" y="385.25" width="26" height="13.25" fill="#388E3C" stroke="#388E3C" stroke-width="0.5" opacity="0.92"/>
<rect x="316.95" y="358.75" width="26" height="26.50" fill="url(#cl_hatch_noi)" stroke="#DCEDC8" stroke-width="0.5" opacity="0.92"/>
<rect x="316.95" y="331.50" width="26" height="27.25" fill="#66BB6A" stroke="#66BB6A" stroke-width="0.5" opacity="0.92"/>
<text x="329.95" y="327.50" text-anchor="middle" font-family="Arial,Helvetica,sans-serif" font-size="8" font-weight="bold" fill="#2E7D32">$2,810K</text>
<rect x="285.95" y="162.05" width="57.00" height="169.45" fill="#FFCDD2" opacity="0.30"/>
<text x="314.45" y="508.0" text-anchor="middle" font-family="Arial,Helvetica,sans-serif" font-size="8.5" fill="#B71C1C" font-weight="bold">0.45x</text>
<text x="314.45" y="492" text-anchor="middle" font-family="Arial,Helvetica,sans-serif" font-size="10" fill="#333333">2026</text>
<rect x="374.14" y="440.35" width="26" height="31.65" fill="#6A1B4D" stroke="#6A1B4D" stroke-width="0.5" opacity="0.92"/>
<rect x="374.14" y="390.20" width="26" height="50.15" fill="#B71C1C" stroke="#B71C1C" stroke-width="0.5" opacity="0.92"/>
<rect x="374.14" y="359.55" width="26" height="30.65" fill="#D32F2F" stroke="#D32F2F" stroke-width="0.5" opacity="0.92"/>
<rect x="374.14" y="244.40" width="26" height="115.15" fill="url(#cl_hatch_ds)" stroke="#FFB74D" stroke-width="0.5" opacity="0.92"/>
<rect x="374.14" y="162.05" width="26" height="82.35" fill="#EF5350" stroke="#EF5350" stroke-width="0.5" opacity="0.92"/>
<text x="387.14" y="158.05" text-anchor="middle" font-family="Arial,Helvetica,sans-serif" font-size="8" font-weight="bold" fill="#B71C1C">$6,199K</text>
<rect x="405.14" y="423.00" width="26" height="49.00" fill="#1B5E20" stroke="#1B5E20" stroke-width="0.5" opacity="0.92"/>
<rect x="405.14" y="396.50" width="26" height="26.50" fill="#2E7D32" stroke="#2E7D32" stroke-width="0.5" opacity="0.92"/>
<rect x="405.14" y="383.00" width="26" height="13.50" fill="#388E3C" stroke="#388E3C" stroke-width="0.5" opacity="0.92"/>
<rect x="405.14" y="355.50" width="26" height="27.50" fill="url(#cl_hatch_noi)" stroke="#DCEDC8" stroke-width="0.5" opacity="0.92"/>
<rect x="405.14" y="327.50" width="26" height="28.00" fill="#66BB6A" stroke="#66BB6A" stroke-width="0.5" opacity="0.92"/>
<text x="418.14" y="323.50" text-anchor="middle" font-family="Arial,Helvetica,sans-serif" font-size="8" font-weight="bold" fill="#2E7D32">$2,890K</text>
<rect x="374.14" y="162.05" width="57.00" height="165.45" fill="#FFCDD2" opacity="0.30"/>
<text x="402.64" y="508.0" text-anchor="middle" font-family="Arial,Helvetica,sans-serif" font-size="8.5" fill="#B71C1C" font-weight="bold">0.47x</text>
<text x="402.64" y="492" text-anchor="middle" font-family="Arial,Helvetica,sans-serif" font-size="10" fill="#333333">2027</text>
<rect x="462.32" y="440.35" width="26" height="31.65" fill="#6A1B4D" stroke="#6A1B4D" stroke-width="0.5" opacity="0.92"/>
<rect x="462.32" y="390.20" width="26" height="50.15" fill="#B71C1C" stroke="#B71C1C" stroke-width="0.5" opacity="0.92"/>
<rect x="462.32" y="359.55" width="26" height="30.65" fill="#D32F2F" stroke="#D32F2F" stroke-width="0.5" opacity="0.92"/>
<rect x="462.32" y="244.40" width="26" height="115.15" fill="url(#cl_hatch_ds)" stroke="#FFB74D" stroke-width="0.5" opacity="0.92"/>
<rect x="462.32" y="162.05" width="26" height="82.35" fill="#EF5350" stroke="#EF5350" stroke-width="0.5" opacity="0.92"/>
<text x="475.32" y="158.05" text-anchor="middle" font-family="Arial,Helvetica,sans-serif" font-size="8" font-weight="bold" fill="#B71C1C">$6,199K</text>
<rect x="493.32" y="421.50" width="26" height="50.50" fill="#1B5E20" stroke="#1B5E20" stroke-width="0.5" opacity="0.92"/>
<rect x="493.32" y="394.00" width="26" height="27.50" fill="#2E7D32" stroke="#2E7D32" stroke-width="0.5" opacity="0.92"/>
<rect x="493.32" y="380.25" width="26" height="13.75" fill="#388E3C" stroke="#388E3C" stroke-width="0.5" opacity="0.92"/>
<rect x="493.32" y="352.25" width="26" height="28.00" fill="url(#cl_hatch_noi)" stroke="#DCEDC8" stroke-width="0.5" opacity="0.92"/>
<rect x="493.32" y="323.50" width="26" height="28.75" fill="#66BB6A" stroke="#66BB6A" stroke-width="0.5" opacity="0.92"/>
<text x="506.32" y="319.50" text-anchor="middle" font-family="Arial,Helvetica,sans-serif" font-size="8" font-weight="bold" fill="#2E7D32">$2,970K</text>
<rect x="462.32" y="162.05" width="57.00" height="161.45" fill="#FFCDD2" opacity="0.30"/>
<text x="490.82" y="508.0" text-anchor="middle" font-family="Arial,Helvetica,sans-serif" font-size="8.5" fill="#B71C1C" font-weight="bold">0.48x</text>
<text x="490.82" y="492" text-anchor="middle" font-family="Arial,Helvetica,sans-serif" font-size="10" fill="#333333">2028</text>
<rect x="550.50" y="440.35" width="26" height="31.65" fill="#6A1B4D" stroke="#6A1B4D" stroke-width="0.5" opacity="0.92"/>
<rect x="550.50" y="390.20" width="26" height="50.15" fill="#B71C1C" stroke="#B71C1C" stroke-width="0.5" opacity="0.92"/>
<rect x="550.50" y="359.55" width="26" height="30.65" fill="#D32F2F" stroke="#D32F2F" stroke-width="0.5" opacity="0.92"/>
<rect x="550.50" y="244.40" width="26" height="115.15" fill="url(#cl_hatch_ds)" stroke="#FFB74D" stroke-width="0.5" opacity="0.92"/>
<rect x="550.50" y="162.05" width="26" height="82.35" fill="#EF5350" stroke="#EF5350" stroke-width="0.5" opacity="0.92"/>
<text x="563.50" y="158.05" text-anchor="middle" font-family="Arial,Helvetica,sans-serif" font-size="8" font-weight="bold" fill="#B71C1C">$6,199K</text>
<rect x="581.50" y="420.00" width="26" height="52.00" fill="#1B5E20" stroke="#1B5E20" stroke-width="0.5" opacity="0.92"/>
<rect x="581.50" y="392.00" width="26" height="28.00" fill="#2E7D32" stroke="#2E7D32" stroke-width="0.5" opacity="0.92"/>
<rect x="581.50" y="377.75" width="26" height="14.25" fill="#388E3C" stroke="#388E3C" stroke-width="0.5" opacity="0.92"/>
<rect x="581.50" y="348.75" width="26" height="29.00" fill="url(#cl_hatch_noi)" stroke="#DCEDC8" stroke-width="0.5" opacity="0.92"/>
<rect x="581.50" y="319.00" width="26" height="29.75" fill="#66BB6A" stroke="#66BB6A" stroke-width="0.5" opacity="0.92"/>
<text x="594.50" y="315.00" text-anchor="middle" font-family="Arial,Helvetica,sans-serif" font-size="8" font-weight="bold" fill="#2E7D32">$3,060K</text>
<rect x="550.50" y="162.05" width="57.00" height="156.95" fill="#FFCDD2" opacity="0.30"/>
<text x="579.00" y="508.0" text-anchor="middle" font-family="Arial,Helvetica,sans-serif" font-size="8.5" fill="#B71C1C" font-weight="bold">0.49x</text>
<text x="579.00" y="492" text-anchor="middle" font-family="Arial,Helvetica,sans-serif" font-size="10" fill="#333333">2029</text>
<rect x="638.68" y="440.35" width="26" height="31.65" fill="#6A1B4D" stroke="#6A1B4D" stroke-width="0.5" opacity="0.92"/>
<rect x="638.68" y="390.20" width="26" height="50.15" fill="#B71C1C" stroke="#B71C1C" stroke-width="0.5" opacity="0.92"/>
<rect x="638.68" y="359.55" width="26" height="30.65" fill="#D32F2F" stroke="#D32F2F" stroke-width="0.5" opacity="0.92"/>
<rect x="638.68" y="244.40" width="26" height="115.15" fill="url(#cl_hatch_ds)" stroke="#FFB74D" stroke-width="0.5" opacity="0.92"/>
<rect x="638.68" y="162.05" width="26" height="82.35" fill="#EF5350" stroke="#EF5350" stroke-width="0.5" opacity="0.92"/>
<text x="651.68" y="158.05" text-anchor="middle" font-family="Arial,Helvetica,sans-serif" font-size="8" font-weight="bold" fill="#B71C1C">$6,199K</text>
<rect x="669.68" y="418.25" width="26" height="53.75" fill="#1B5E20" stroke="#1B5E20" stroke-width="0.5" opacity="0.92"/>
<rect x="669.68" y="389.25" width="26" height="29.00" fill="#2E7D32" stroke="#2E7D32" stroke-width="0.5" opacity="0.92"/>
<rect x="669.68" y="374.50" width="26" height="14.75" fill="#388E3C" stroke="#388E3C" stroke-width="0.5" opacity="0.92"/>
<rect x="669.68" y="344.50" width="26" height="30.00" fill="url(#cl_hatch_noi)" stroke="#DCEDC8" stroke-width="0.5" opacity="0.92"/>
<rect x="669.68" y="314.00" width="26" height="30.50" fill="#66BB6A" stroke="#66BB6A" stroke-width="0.5" opacity="0.92"/>
<text x="682.68" y="310.00" text-anchor="middle" font-family="Arial,Helvetica,sans-serif" font-size="8" font-weight="bold" fill="#2E7D32">$3,160K</text>
<rect x="638.68" y="162.05" width="57.00" height="151.95" fill="#FFCDD2" opacity="0.30"/>
<text x="667.18" y="508.0" text-anchor="middle" font-family="Arial,Helvetica,sans-serif" font-size="8.5" fill="#B71C1C" font-weight="bold">0.51x</text>
<text x="667.18" y="492" text-anchor="middle" font-family="Arial,Helvetica,sans-serif" font-size="10" fill="#333333">2030</text>
<rect x="726.86" y="440.35" width="26" height="31.65" fill="#6A1B4D" stroke="#6A1B4D" stroke-width="0.5" opacity="0.92"/>
<rect x="726.86" y="390.20" width="26" height="50.15" fill="#B71C1C" stroke="#B71C1C" stroke-width="0.5" opacity="0.92"/>
<rect x="726.86" y="359.55" width="26" height="30.65" fill="#D32F2F" stroke="#D32F2F" stroke-width="0.5" opacity="0.92"/>
<rect x="726.86" y="244.40" width="26" height="115.15" fill="url(#cl_hatch_ds)" stroke="#FFB74D" stroke-width="0.5" opacity="0.92"/>
<rect x="726.86" y="162.05" width="26" height="82.35" fill="#EF5350" stroke="#EF5350" stroke-width="0.5" opacity="0.92"/>
<text x="739.86" y="158.05" text-anchor="middle" font-family="Arial,Helvetica,sans-serif" font-size="8" font-weight="bold" fill="#B71C1C">$6,199K</text>
<rect x="757.86" y="416.75" width="26" height="55.25" fill="#1B5E20" stroke="#1B5E20" stroke-width="0.5" opacity="0.92"/>
<rect x="757.86" y="387.00" width="26" height="29.75" fill="#2E7D32" stroke="#2E7D32" stroke-width="0.5" opacity="0.92"/>
<rect x="757.86" y="372.00" width="26" height="15.00" fill="#388E3C" stroke="#388E3C" stroke-width="0.5" opacity="0.92"/>
<rect x="757.86" y="341.25" width="26" height="30.75" fill="url(#cl_hatch_noi)" stroke="#DCEDC8" stroke-width="0.5" opacity="0.92"/>
<rect x="757.86" y="309.75" width="26" height="31.50" fill="#66BB6A" stroke="#66BB6A" stroke-width="0.5" opacity="0.92"/>
<text x="770.86" y="305.75" text-anchor="middle" font-family="Arial,Helvetica,sans-serif" font-size="8" font-weight="bold" fill="#2E7D32">$3,245K</text>
<rect x="726.86" y="162.05" width="57.00" height="147.70" fill="#FFCDD2" opacity="0.30"/>
<text x="755.36" y="508.0" text-anchor="middle" font-family="Arial,Helvetica,sans-serif" font-size="8.5" fill="#B71C1C" font-weight="bold">0.52x</text>
<text x="755.36" y="492" text-anchor="middle" font-family="Arial,Helvetica,sans-serif" font-size="10" fill="#333333">2031</text>
<rect x="815.05" y="440.35" width="26" height="31.65" fill="#6A1B4D" stroke="#6A1B4D" stroke-width="0.5" opacity="0.92"/>
<rect x="815.05" y="390.20" width="26" height="50.15" fill="#B71C1C" stroke="#B71C1C" stroke-width="0.5" opacity="0.92"/>
<rect x="815.05" y="359.55" width="26" height="30.65" fill="#D32F2F" stroke="#D32F2F" stroke-width="0.5" opacity="0.92"/>
<rect x="815.05" y="244.40" width="26" height="115.15" fill="url(#cl_hatch_ds)" stroke="#FFB74D" stroke-width="0.5" opacity="0.92"/>
<rect x="815.05" y="162.05" width="26" height="82.35" fill="#EF5350" stroke="#EF5350" stroke-width="0.5" opacity="0.92"/>
<text x="828.05" y="158.05" text-anchor="middle" font-family="Arial,Helvetica,sans-serif" font-size="8" font-weight="bold" fill="#B71C1C">$6,199K</text>
<rect x="846.05" y="415.00" width="26" height="57.00" fill="#1B5E20" stroke="#1B5E20" stroke-width="0.5" opacity="0.92"/>
<rect x="846.05" y="384.25" width="26" height="30.75" fill="#2E7D32" stroke="#2E7D32" stroke-width="0.5" opacity="0.92"/>
<rect x="846.05" y="368.50" width="26" height="15.75" fill="#388E3C" stroke="#388E3C" stroke-width="0.5" opacity="0.92"/>
<rect x="846.05" y="336.75" width="26" height="31.75" fill="url(#cl_hatch_noi)" stroke="#DCEDC8" stroke-width="0.5" opacity="0.92"/>
<rect x="846.05" y="304.25" width="26" height="32.50" fill="#66BB6A" stroke="#66BB6A" stroke-width="0.5" opacity="0.92"/>
<text x="859.05" y="300.25" text-anchor="middle" font-family="Arial,Helvetica,sans-serif" font-size="8" font-weight="bold" fill="#2E7D32">$3,355K</text>
<rect x="815.05" y="162.05" width="57.00" height="142.20" fill="#FFCDD2" opacity="0.30"/>
<text x="843.55" y="508.0" text-anchor="middle" font-family="Arial,Helvetica,sans-serif" font-size="8.5" fill="#B71C1C" font-weight="bold">0.54x</text>
<text x="843.55" y="492" text-anchor="middle" font-family="Arial,Helvetica,sans-serif" font-size="10" fill="#333333">2032</text>
<rect x="903.23" y="440.35" width="26" height="31.65" fill="#6A1B4D" stroke="#6A1B4D" stroke-width="0.5" opacity="0.92"/>
<rect x="903.23" y="390.20" width="26" height="50.15" fill="#B71C1C" stroke="#B71C1C" stroke-width="0.5" opacity="0.92"/>
<rect x="903.23" y="359.55" width="26" height="30.65" fill="#D32F2F" stroke="#D32F2F" stroke-width="0.5" opacity="0.92"/>
<rect x="903.23" y="244.40" width="26" height="115.15" fill="url(#cl_hatch_ds)" stroke="#FFB74D" stroke-width="0.5" opacity="0.92"/>
<rect x="903.23" y="162.05" width="26" height="82.35" fill="#EF5350" stroke="#EF5350" stroke-width="0.5" opacity="0.92"/>
<text x="916.23" y="158.05" text-anchor="middle" font-family="Arial,Helvetica,sans-serif" font-size="8" font-weight="bold" fill="#B71C1C">$6,199K</text>
<rect x="934.23" y="413.25" width="26" height="58.75" fill="#1B5E20" stroke="#1B5E20" stroke-width="0.5" opacity="0.92"/>
<rect x="934.23" y="381.50" width="26" height="31.75" fill="#2E7D32" stroke="#2E7D32" stroke-width="0.5" opacity="0.92"/>
<rect x="934.23" y="365.25" width="26" height="16.25" fill="#388E3C" stroke="#388E3C" stroke-width="0.5" opacity="0.92"/>
<rect x="934.23" y="332.50" width="26" height="32.75" fill="url(#cl_hatch_noi)" stroke="#DCEDC8" stroke-width="0.5" opacity="0.92"/>
<rect x="934.23" y="299.25" width="26" height="33.25" fill="#66BB6A" stroke="#66BB6A" stroke-width="0.5" opacity="0.92"/>
<text x="947.23" y="295.25" text-anchor="middle" font-family="Arial,Helvetica,sans-serif" font-size="8" font-weight="bold" fill="#2E7D32">$3,455K</text>
<rect x="903.23" y="162.05" width="57.00" height="137.20" fill="#FFCDD2" opacity="0.30"/>
<text x="931.73" y="508.0" text-anchor="middle" font-family="Arial,Helvetica,sans-serif" font-size="8.5" fill="#B71C1C" font-weight="bold">0.56x</text>
<text x="931.73" y="492" text-anchor="middle" font-family="Arial,Helvetica,sans-serif" font-size="10" fill="#333333">2033</text>
<rect x="991.41" y="440.35" width="26" height="31.65" fill="#6A1B4D" stroke="#6A1B4D" stroke-width="0.5" opacity="0.92"/>
<rect x="991.41" y="390.20" width="26" height="50.15" fill="#B71C1C" stroke="#B71C1C" stroke-width="0.5" opacity="0.92"/>
<rect x="991.41" y="359.55" width="26" height="30.65" fill="#D32F2F" stroke="#D32F2F" stroke-width="0.5" opacity="0.92"/>
<rect x="991.41" y="244.40" width="26" height="115.15" fill="url(#cl_hatch_ds)" stroke="#FFB74D" stroke-width="0.5" opacity="0.92"/>
<rect x="991.41" y="162.05" width="26" height="82.35" fill="#EF5350" stroke="#EF5350" stroke-width="0.5" opacity="0.92"/>
<text x="1004.41" y="158.05" text-anchor="middle" font-family="Arial,Helvetica,sans-serif" font-size="8" font-weight="bold" fill="#B71C1C">$6,199K</text>
<rect x="1022.41" y="411.75" width="26" height="60.25" fill="#1B5E20" stroke="#1B5E20" stroke-width="0.5" opacity="0.92"/>
<rect x="1022.41" y="379.25" width="26" height="32.50" fill="#2E7D32" stroke="#2E7D32" stroke-width="0.5" opacity="0.92"/>
<rect x="1022.41" y="362.75" width="26" height="16.50" fill="#388E3C" stroke="#388E3C" stroke-width="0.5" opacity="0.92"/>
<rect x="1022.41" y="329.25" width="26" height="33.50" fill="url(#cl_hatch_noi)" stroke="#DCEDC8" stroke-width="0.5" opacity="0.92"/>
<rect x="1022.41" y="294.75" width="26" height="34.50" fill="#66BB6A" stroke="#66BB6A" stroke-width="0.5" opacity="0.92"/>
<text x="1035.41" y="290.75" text-anchor="middle" font-family="Arial,Helvetica,sans-serif" font-size="8" font-weight="bold" fill="#2E7D32">$3,545K</text>
<rect x="991.41" y="162.05" width="57.00" height="132.70" fill="#FFCDD2" opacity="0.30"/>
<text x="1019.91" y="508.0" text-anchor="middle" font-family="Arial,Helvetica,sans-serif" font-size="8.5" fill="#B71C1C" font-weight="bold">0.57x</text>
<text x="1019.91" y="492" text-anchor="middle" font-family="Arial,Helvetica,sans-serif" font-size="10" fill="#333333">2034</text>
<text x="86" y="512.0" text-anchor="end" font-family="Arial,Helvetica,sans-serif" font-size="8.5" fill="#555555" font-style="italic">DSCR</text>
<rect x="42" y="510" width="1020" height="70" fill="white" stroke="#DDDDDD" stroke-width="1" rx="4" opacity="0.92"/>
<text x="70" y="524" font-family="Arial,Helvetica,sans-serif" font-size="9.5" font-weight="bold" fill="#B71C1C">Debt Service (DS) ← stacked left bar</text>
<text x="480" y="524" font-family="Arial,Helvetica,sans-serif" font-size="9.5" font-weight="bold" fill="#2E7D32">NOI ← stacked right bar</text>
<rect x="50" y="536" width="12" height="12" fill="#6A1B4D" stroke="#6A1B4D" stroke-width="0.5" rx="1"/>
<rect x="140" y="536" width="12" height="12" fill="#1B5E20" stroke="#1B5E20" stroke-width="0.5" rx="1"/>
<text x="66" y="546" font-family="Arial,Helvetica,sans-serif" font-size="9" fill="#333333">Shandoka</text>
<rect x="250" y="536" width="12" height="12" fill="#B71C1C" stroke="#B71C1C" stroke-width="0.5" rx="1"/>
<rect x="340" y="536" width="12" height="12" fill="#2E7D32" stroke="#2E7D32" stroke-width="0.5" rx="1"/>
<text x="266" y="546" font-family="Arial,Helvetica,sans-serif" font-size="9" fill="#333333">Sunnyside</text>
<rect x="450" y="536" width="12" height="12" fill="#D32F2F" stroke="#D32F2F" stroke-width="0.5" rx="1"/>
<rect x="540" y="536" width="12" height="12" fill="#388E3C" stroke="#388E3C" stroke-width="0.5" rx="1"/>
<text x="466" y="546" font-family="Arial,Helvetica,sans-serif" font-size="9" fill="#333333">Virginia Placer</text>
<rect x="650" y="536" width="12" height="12" fill="url(#cl_hatch_ds)" stroke="#E65100" stroke-width="0.5" rx="1"/>
<rect x="740" y="536" width="12" height="12" fill="url(#cl_hatch_noi)" stroke="#558B2F" stroke-width="0.5" rx="1"/>
<text x="666" y="546" font-family="Arial,Helvetica,sans-serif" font-size="9" fill="#333333">CanyonLands ⚠</text>
<rect x="850" y="536" width="12" height="12" fill="#EF5350" stroke="#EF5350" stroke-width="0.5" rx="1"/>
<rect x="940" y="536" width="12" height="12" fill="#66BB6A" stroke="#66BB6A" stroke-width="0.5" rx="1"/>
<text x="866" y="546" font-family="Arial,Helvetica,sans-serif" font-size="9" fill="#333333">VooDoo</text>
<rect x="50" y="556" width="50" height="10" fill="#FFCDD2" opacity="0.7" rx="1"/>
<text x="106" y="565" font-family="Arial,Helvetica,sans-serif" font-size="8.5" fill="#999999" font-style="italic">Pink band = annual shortfall (NOI &lt; total DS)</text>
<text x="370" y="565" font-family="Arial,Helvetica,sans-serif" font-size="8.5" fill="#E65100" font-style="italic">⚠ CanyonLands = conduit bond, no audited financials (THA Board memo only)</text>
<text x="550" y="588" text-anchor="middle" font-family="Arial,Helvetica,sans-serif" font-size="7.5" fill="#AAAAAA" font-style="italic">NOI assumes 15% vacancy rate applied to all projects.  Fully-amortizing DS: VooDoo $1,647K  CanyonLands $2,303K  VA Placer $613K  Sunnyside $1,003K  Shandoka $633K.</text>
<text x="550" y="598" text-anchor="middle" font-family="Arial,Helvetica,sans-serif" font-size="7.5" fill="#AAAAAA" font-style="italic">Sources: 2023 &amp; 2024 Town of Telluride Audited Financials; THA Board memo June 2024.  CanyonLands = conduit (WI PFA), no audited financials.  2025+ = TABOR model + 3% annual NOI growth.</text>
</svg>